<mxfile host="Electron" agent="Mozilla/5.0 (Windows NT 10.0; Win64; x64) AppleWebKit/537.36 (KHTML, like Gecko) draw.io/24.7.8 Chrome/128.0.6613.36 Electron/32.0.1 Safari/537.36" version="24.7.8">
  <diagram name="Страница — 1" id="yzks5J0dKC8-8EoDg6bR">
    <mxGraphModel dx="1173" dy="1878" grid="1" gridSize="10" guides="1" tooltips="1" connect="1" arrows="1" fold="1" page="1" pageScale="1" pageWidth="827" pageHeight="1169" math="0" shadow="0">
      <root>
        <mxCell id="0" />
        <mxCell id="1" parent="0" />
        <mxCell id="s8v2utotI7aOqe7e_cGM-1" value="Регистарция и авторизация" style="ellipse;whiteSpace=wrap;html=1;aspect=fixed;" parent="1" vertex="1">
          <mxGeometry x="25" y="130" width="80" height="80" as="geometry" />
        </mxCell>
        <mxCell id="s8v2utotI7aOqe7e_cGM-4" value="" style="edgeStyle=orthogonalEdgeStyle;rounded=0;orthogonalLoop=1;jettySize=auto;html=1;" parent="1" source="s8v2utotI7aOqe7e_cGM-2" target="s8v2utotI7aOqe7e_cGM-1" edge="1">
          <mxGeometry relative="1" as="geometry" />
        </mxCell>
        <mxCell id="s8v2utotI7aOqe7e_cGM-2" value="users" style="shape=umlActor;verticalLabelPosition=bottom;verticalAlign=top;html=1;outlineConnect=0;" parent="1" vertex="1">
          <mxGeometry x="50" y="-10" width="30" height="60" as="geometry" />
        </mxCell>
        <mxCell id="s8v2utotI7aOqe7e_cGM-14" value="Смена пароля" style="ellipse;whiteSpace=wrap;html=1;aspect=fixed;" parent="1" vertex="1">
          <mxGeometry x="25" y="285" width="80" height="80" as="geometry" />
        </mxCell>
        <mxCell id="s8v2utotI7aOqe7e_cGM-27" value="Просмотр товаров" style="ellipse;whiteSpace=wrap;html=1;aspect=fixed;" parent="1" vertex="1">
          <mxGeometry x="225" y="120" width="60" height="60" as="geometry" />
        </mxCell>
        <mxCell id="s8v2utotI7aOqe7e_cGM-36" value="&lt;font style=&quot;font-size: 11px;&quot;&gt;Добавление товара в избранное&lt;/font&gt;" style="ellipse;whiteSpace=wrap;html=1;aspect=fixed;" parent="1" vertex="1">
          <mxGeometry x="220" y="30" width="70" height="70" as="geometry" />
        </mxCell>
        <mxCell id="s8v2utotI7aOqe7e_cGM-39" value="Добавление товара в корзину" style="ellipse;whiteSpace=wrap;html=1;aspect=fixed;" parent="1" vertex="1">
          <mxGeometry x="220" y="-50" width="70" height="70" as="geometry" />
        </mxCell>
        <mxCell id="s8v2utotI7aOqe7e_cGM-41" value="Оформление доставки товара" style="ellipse;whiteSpace=wrap;html=1;aspect=fixed;" parent="1" vertex="1">
          <mxGeometry x="657.5" y="-145" width="95" height="95" as="geometry" />
        </mxCell>
        <mxCell id="4XbMXKQVAnfTovd9YvpI-2" value="logist&lt;div&gt;&lt;br&gt;&lt;/div&gt;" style="shape=umlActor;verticalLabelPosition=bottom;verticalAlign=top;html=1;outlineConnect=0;" vertex="1" parent="1">
          <mxGeometry x="810" y="-17.5" width="30" height="60" as="geometry" />
        </mxCell>
        <mxCell id="4XbMXKQVAnfTovd9YvpI-4" value="admin" style="shape=umlActor;verticalLabelPosition=bottom;verticalAlign=top;html=1;outlineConnect=0;" vertex="1" parent="1">
          <mxGeometry x="797" y="340" width="30" height="60" as="geometry" />
        </mxCell>
        <mxCell id="4XbMXKQVAnfTovd9YvpI-12" value="Изменение описания товара&amp;nbsp;" style="ellipse;whiteSpace=wrap;html=1;aspect=fixed;" vertex="1" parent="1">
          <mxGeometry x="657.5" y="300" width="75" height="75" as="geometry" />
        </mxCell>
        <mxCell id="4XbMXKQVAnfTovd9YvpI-16" value="Удаление товаров" style="ellipse;whiteSpace=wrap;html=1;aspect=fixed;" vertex="1" parent="1">
          <mxGeometry x="719" y="210" width="78" height="78" as="geometry" />
        </mxCell>
        <mxCell id="4XbMXKQVAnfTovd9YvpI-24" value="Получение информации о заказе" style="ellipse;whiteSpace=wrap;html=1;aspect=fixed;" vertex="1" parent="1">
          <mxGeometry x="660" y="-37.499999999999886" width="80" height="80" as="geometry" />
        </mxCell>
        <mxCell id="4XbMXKQVAnfTovd9YvpI-28" value="Отравление информации о доставке курьеру" style="ellipse;whiteSpace=wrap;html=1;aspect=fixed;" vertex="1" parent="1">
          <mxGeometry x="670" y="80" width="90" height="90" as="geometry" />
        </mxCell>
        <mxCell id="4XbMXKQVAnfTovd9YvpI-31" value="Изменение цены товара" style="ellipse;whiteSpace=wrap;html=1;aspect=fixed;" vertex="1" parent="1">
          <mxGeometry x="637" y="365" width="70" height="70" as="geometry" />
        </mxCell>
        <mxCell id="4XbMXKQVAnfTovd9YvpI-32" value="" style="endArrow=classic;html=1;rounded=0;entryX=0.5;entryY=1;entryDx=0;entryDy=0;dashed=1;exitX=0.5;exitY=0;exitDx=0;exitDy=0;" edge="1" parent="1" source="s8v2utotI7aOqe7e_cGM-14" target="s8v2utotI7aOqe7e_cGM-1">
          <mxGeometry width="50" height="50" relative="1" as="geometry">
            <mxPoint x="65" y="349" as="sourcePoint" />
            <mxPoint x="400" y="150" as="targetPoint" />
          </mxGeometry>
        </mxCell>
        <mxCell id="4XbMXKQVAnfTovd9YvpI-33" value="include&lt;div&gt;&lt;br&gt;&lt;/div&gt;" style="edgeLabel;html=1;align=center;verticalAlign=middle;resizable=0;points=[];" vertex="1" connectable="0" parent="4XbMXKQVAnfTovd9YvpI-32">
          <mxGeometry x="-0.0139" y="2" relative="1" as="geometry">
            <mxPoint as="offset" />
          </mxGeometry>
        </mxCell>
        <mxCell id="4XbMXKQVAnfTovd9YvpI-36" value="" style="endArrow=classic;html=1;rounded=0;entryX=0.013;entryY=0.717;entryDx=0;entryDy=0;entryPerimeter=0;exitX=1;exitY=1;exitDx=0;exitDy=0;exitPerimeter=0;" edge="1" parent="1" source="s8v2utotI7aOqe7e_cGM-2" target="s8v2utotI7aOqe7e_cGM-39">
          <mxGeometry width="50" height="50" relative="1" as="geometry">
            <mxPoint x="105" y="200" as="sourcePoint" />
            <mxPoint x="155" y="150" as="targetPoint" />
          </mxGeometry>
        </mxCell>
        <mxCell id="4XbMXKQVAnfTovd9YvpI-38" value="" style="endArrow=classic;html=1;rounded=0;entryX=-0.026;entryY=0.401;entryDx=0;entryDy=0;entryPerimeter=0;exitX=1;exitY=1;exitDx=0;exitDy=0;exitPerimeter=0;" edge="1" parent="1" source="s8v2utotI7aOqe7e_cGM-2" target="s8v2utotI7aOqe7e_cGM-36">
          <mxGeometry width="50" height="50" relative="1" as="geometry">
            <mxPoint x="105" y="214" as="sourcePoint" />
            <mxPoint x="221" y="171" as="targetPoint" />
          </mxGeometry>
        </mxCell>
        <mxCell id="4XbMXKQVAnfTovd9YvpI-39" value="" style="endArrow=classic;html=1;rounded=0;exitX=1;exitY=1;exitDx=0;exitDy=0;exitPerimeter=0;" edge="1" parent="1" source="s8v2utotI7aOqe7e_cGM-2" target="s8v2utotI7aOqe7e_cGM-27">
          <mxGeometry width="50" height="50" relative="1" as="geometry">
            <mxPoint x="105" y="222" as="sourcePoint" />
            <mxPoint x="218" y="250" as="targetPoint" />
          </mxGeometry>
        </mxCell>
        <mxCell id="4XbMXKQVAnfTovd9YvpI-41" value="" style="endArrow=classic;html=1;rounded=0;entryX=1;entryY=1;entryDx=0;entryDy=0;" edge="1" parent="1" target="s8v2utotI7aOqe7e_cGM-41">
          <mxGeometry width="50" height="50" relative="1" as="geometry">
            <mxPoint x="820" y="-17.5" as="sourcePoint" />
            <mxPoint x="870" y="-67.5" as="targetPoint" />
          </mxGeometry>
        </mxCell>
        <mxCell id="4XbMXKQVAnfTovd9YvpI-42" value="" style="endArrow=classic;html=1;rounded=0;entryX=1;entryY=0.5;entryDx=0;entryDy=0;exitX=0.5;exitY=0.5;exitDx=0;exitDy=0;exitPerimeter=0;" edge="1" parent="1" source="4XbMXKQVAnfTovd9YvpI-2" target="4XbMXKQVAnfTovd9YvpI-24">
          <mxGeometry width="50" height="50" relative="1" as="geometry">
            <mxPoint x="809" as="sourcePoint" />
            <mxPoint x="760" y="-17.5" as="targetPoint" />
          </mxGeometry>
        </mxCell>
        <mxCell id="4XbMXKQVAnfTovd9YvpI-44" value="" style="endArrow=classic;html=1;rounded=0;" edge="1" parent="1" target="4XbMXKQVAnfTovd9YvpI-28">
          <mxGeometry width="50" height="50" relative="1" as="geometry">
            <mxPoint x="810" y="40" as="sourcePoint" />
            <mxPoint x="760" y="80" as="targetPoint" />
          </mxGeometry>
        </mxCell>
        <mxCell id="4XbMXKQVAnfTovd9YvpI-45" value="courier" style="shape=umlActor;verticalLabelPosition=bottom;verticalAlign=top;html=1;outlineConnect=0;" vertex="1" parent="1">
          <mxGeometry x="400" y="345" width="30" height="60" as="geometry" />
        </mxCell>
        <mxCell id="4XbMXKQVAnfTovd9YvpI-47" value="" style="endArrow=classic;html=1;rounded=0;exitX=0.25;exitY=0.1;exitDx=0;exitDy=0;exitPerimeter=0;" edge="1" parent="1" source="4XbMXKQVAnfTovd9YvpI-45" target="4XbMXKQVAnfTovd9YvpI-48">
          <mxGeometry width="50" height="50" relative="1" as="geometry">
            <mxPoint x="414" y="350" as="sourcePoint" />
            <mxPoint x="380" y="310" as="targetPoint" />
          </mxGeometry>
        </mxCell>
        <mxCell id="4XbMXKQVAnfTovd9YvpI-48" value="Получение информации о доставке&amp;nbsp;" style="ellipse;whiteSpace=wrap;html=1;aspect=fixed;" vertex="1" parent="1">
          <mxGeometry x="300" y="250" width="80" height="80" as="geometry" />
        </mxCell>
        <mxCell id="4XbMXKQVAnfTovd9YvpI-50" value="" style="endArrow=classic;html=1;rounded=0;exitX=0.25;exitY=0.1;exitDx=0;exitDy=0;exitPerimeter=0;entryX=1;entryY=1;entryDx=0;entryDy=0;" edge="1" parent="1" source="4XbMXKQVAnfTovd9YvpI-4" target="4XbMXKQVAnfTovd9YvpI-16">
          <mxGeometry width="50" height="50" relative="1" as="geometry">
            <mxPoint x="390" y="240" as="sourcePoint" />
            <mxPoint x="440" y="190" as="targetPoint" />
          </mxGeometry>
        </mxCell>
        <mxCell id="4XbMXKQVAnfTovd9YvpI-51" value="" style="endArrow=classic;html=1;rounded=0;exitX=0;exitY=0.3333333333333333;exitDx=0;exitDy=0;exitPerimeter=0;entryX=0.992;entryY=0.708;entryDx=0;entryDy=0;entryPerimeter=0;" edge="1" parent="1" source="4XbMXKQVAnfTovd9YvpI-4" target="4XbMXKQVAnfTovd9YvpI-12">
          <mxGeometry width="50" height="50" relative="1" as="geometry">
            <mxPoint x="756" y="399" as="sourcePoint" />
            <mxPoint x="737" y="330" as="targetPoint" />
          </mxGeometry>
        </mxCell>
        <mxCell id="4XbMXKQVAnfTovd9YvpI-52" value="" style="endArrow=classic;html=1;rounded=0;entryX=1;entryY=1;entryDx=0;entryDy=0;" edge="1" parent="1" source="4XbMXKQVAnfTovd9YvpI-4">
          <mxGeometry width="50" height="50" relative="1" as="geometry">
            <mxPoint x="726" y="469" as="sourcePoint" />
            <mxPoint x="707" y="400" as="targetPoint" />
          </mxGeometry>
        </mxCell>
        <mxCell id="4XbMXKQVAnfTovd9YvpI-53" value="Просмотр статуса доставки" style="ellipse;whiteSpace=wrap;html=1;aspect=fixed;" vertex="1" parent="1">
          <mxGeometry x="440" y="80" width="80" height="80" as="geometry" />
        </mxCell>
        <mxCell id="4XbMXKQVAnfTovd9YvpI-54" value="" style="endArrow=classic;html=1;rounded=0;entryX=0;entryY=1;entryDx=0;entryDy=0;" edge="1" parent="1" target="4XbMXKQVAnfTovd9YvpI-55">
          <mxGeometry width="50" height="50" relative="1" as="geometry">
            <mxPoint x="420" y="345" as="sourcePoint" />
            <mxPoint x="470" y="295" as="targetPoint" />
          </mxGeometry>
        </mxCell>
        <mxCell id="4XbMXKQVAnfTovd9YvpI-55" value="Отчет по статусу доставки" style="ellipse;whiteSpace=wrap;html=1;aspect=fixed;" vertex="1" parent="1">
          <mxGeometry x="440" y="250" width="80" height="80" as="geometry" />
        </mxCell>
        <mxCell id="4XbMXKQVAnfTovd9YvpI-56" value="" style="endArrow=classic;html=1;rounded=0;exitX=1;exitY=1;exitDx=0;exitDy=0;exitPerimeter=0;entryX=0;entryY=0.5;entryDx=0;entryDy=0;" edge="1" parent="1" source="s8v2utotI7aOqe7e_cGM-2" target="4XbMXKQVAnfTovd9YvpI-53">
          <mxGeometry width="50" height="50" relative="1" as="geometry">
            <mxPoint x="390" y="240" as="sourcePoint" />
            <mxPoint x="440" y="190" as="targetPoint" />
          </mxGeometry>
        </mxCell>
        <mxCell id="4XbMXKQVAnfTovd9YvpI-57" value="" style="endArrow=classic;html=1;rounded=0;entryX=1;entryY=0.375;entryDx=0;entryDy=0;entryPerimeter=0;" edge="1" parent="1" source="4XbMXKQVAnfTovd9YvpI-2" target="4XbMXKQVAnfTovd9YvpI-53">
          <mxGeometry width="50" height="50" relative="1" as="geometry">
            <mxPoint x="390" y="130" as="sourcePoint" />
            <mxPoint x="710" y="230" as="targetPoint" />
          </mxGeometry>
        </mxCell>
        <mxCell id="4XbMXKQVAnfTovd9YvpI-58" value="" style="endArrow=classic;html=1;rounded=0;exitX=0;exitY=0.3333333333333333;exitDx=0;exitDy=0;exitPerimeter=0;entryX=0.971;entryY=0.817;entryDx=0;entryDy=0;entryPerimeter=0;" edge="1" parent="1" source="4XbMXKQVAnfTovd9YvpI-4" target="4XbMXKQVAnfTovd9YvpI-53">
          <mxGeometry width="50" height="50" relative="1" as="geometry">
            <mxPoint x="390" y="240" as="sourcePoint" />
            <mxPoint x="440" y="190" as="targetPoint" />
          </mxGeometry>
        </mxCell>
        <mxCell id="4XbMXKQVAnfTovd9YvpI-61" value="" style="endArrow=classic;html=1;rounded=0;exitX=0.5;exitY=1;exitDx=0;exitDy=0;entryX=0;entryY=0.5;entryDx=0;entryDy=0;dashed=1;" edge="1" parent="1" source="4XbMXKQVAnfTovd9YvpI-53">
          <mxGeometry width="50" height="50" relative="1" as="geometry">
            <mxPoint x="160" y="150" as="sourcePoint" />
            <mxPoint x="480" y="250" as="targetPoint" />
          </mxGeometry>
        </mxCell>
        <mxCell id="4XbMXKQVAnfTovd9YvpI-62" value="include" style="edgeLabel;html=1;align=center;verticalAlign=middle;resizable=0;points=[];" vertex="1" connectable="0" parent="4XbMXKQVAnfTovd9YvpI-61">
          <mxGeometry x="0.1231" y="5" relative="1" as="geometry">
            <mxPoint x="1" as="offset" />
          </mxGeometry>
        </mxCell>
        <mxCell id="4XbMXKQVAnfTovd9YvpI-63" value="" style="endArrow=classic;html=1;rounded=0;" edge="1" parent="1" target="4XbMXKQVAnfTovd9YvpI-64">
          <mxGeometry width="50" height="50" relative="1" as="geometry">
            <mxPoint x="796.9995364048569" y="399.9981491014924" as="sourcePoint" />
            <mxPoint x="710" y="450" as="targetPoint" />
          </mxGeometry>
        </mxCell>
        <mxCell id="4XbMXKQVAnfTovd9YvpI-64" value="Добавление товаров" style="ellipse;whiteSpace=wrap;html=1;aspect=fixed;" vertex="1" parent="1">
          <mxGeometry x="639" y="450" width="80" height="80" as="geometry" />
        </mxCell>
      </root>
    </mxGraphModel>
  </diagram>
</mxfile>
